<svg width="45" height="42" viewBox="0 0 45 42" fill="none" xmlns="http://www.w3.org/2000/svg">
<g clip-path="url(#clip0_1_66)">
<g clip-path="url(#clip1_1_66)">
<g clip-path="url(#clip2_1_66)">
<path d="M8.86796 27.1705C7.69493 27.1705 6.54824 26.8227 5.57293 26.1709C4.59762 25.5191 3.83751 24.5927 3.38871 23.509C2.93992 22.4252 2.82261 21.2327 3.05162 20.0822C3.28064 18.9318 3.84569 17.875 4.67531 17.0458C5.50493 16.2164 6.56185 15.6518 7.7124 15.4233C8.86295 15.1947 10.0555 15.3124 11.1391 15.7617C12.2227 16.2109 13.1487 16.9713 13.8001 17.9469C14.4515 18.9225 14.7989 20.0693 14.7984 21.2423C14.7966 22.8145 14.1711 24.3215 13.0592 25.433C11.9474 26.5444 10.4401 27.1692 8.86796 27.1705ZM8.86796 17.6258C8.15266 17.6258 7.45343 17.8379 6.85869 18.2353C6.26395 18.6327 5.8004 19.1975 5.52667 19.8583C5.25294 20.5192 5.18132 21.2464 5.32087 21.9479C5.46041 22.6494 5.80486 23.2939 6.31064 23.7996C6.81644 24.3055 7.46085 24.6499 8.1624 24.7894C8.86394 24.929 9.59108 24.8574 10.252 24.5836C10.9128 24.3099 11.4776 23.8463 11.875 23.2516C12.2724 22.6568 12.4845 21.9577 12.4845 21.2423C12.4839 20.2833 12.1027 19.3638 11.4246 18.6857C10.7465 18.0077 9.82697 17.6264 8.86796 17.6258Z" fill="black"/>
<path d="M15.8116 40.7647C15.5048 40.7647 15.2105 40.6428 14.9935 40.4258C14.7766 40.2088 14.6547 39.9146 14.6547 39.6077V37.2939C14.6547 35.7596 14.0453 34.2883 12.9604 33.2035C11.8756 32.1186 10.4042 31.5092 8.87003 31.5092C7.33584 31.5092 5.86448 32.1186 4.77965 33.2035C3.69481 34.2883 3.08535 35.7596 3.08535 37.2939V39.6077C3.08535 39.9146 2.96347 40.2088 2.7465 40.4258C2.52953 40.6428 2.23526 40.7647 1.92842 40.7647C1.62158 40.7647 1.32731 40.6428 1.11034 40.4258C0.893376 40.2088 0.771484 39.9146 0.771484 39.6077V37.2939C0.771484 35.146 1.62472 33.0861 3.1435 31.5674C4.66227 30.0486 6.72217 29.1953 8.87003 29.1953C11.0179 29.1953 13.0778 30.0486 14.5966 31.5674C16.1153 33.0861 16.9686 35.146 16.9686 37.2939V39.6077C16.9686 39.9146 16.8467 40.2088 16.6297 40.4258C16.4127 40.6428 16.1185 40.7647 15.8116 40.7647Z" fill="black"/>
<path d="M15.8124 39.2838C15.5923 39.2836 15.3768 39.2206 15.1913 39.1024C15.0057 38.9841 14.8577 38.8154 14.7647 38.6159C14.6717 38.4165 14.6375 38.1946 14.6661 37.9765C14.6946 37.7583 14.7848 37.5528 14.9261 37.384L31.1232 18.0401C31.3236 17.8164 31.603 17.6794 31.9024 17.658C32.202 17.6365 32.4981 17.7324 32.7282 17.9253C32.9583 18.1181 33.1044 18.3929 33.1357 18.6916C33.1669 18.9902 33.0808 19.2893 32.8956 19.5256L16.6985 38.8696C16.5901 38.9991 16.4545 39.1033 16.3013 39.1749C16.1483 39.2465 15.9813 39.2836 15.8124 39.2838Z" fill="black"/>
<path d="M6.55733 12.9981C6.25049 12.9981 5.95622 12.8762 5.73925 12.6592C5.52229 12.4422 5.40039 12.148 5.40039 11.8411V2.58564C5.40039 2.27881 5.52229 1.98454 5.73925 1.76757C5.95622 1.5506 6.25049 1.42871 6.55733 1.42871C6.86417 1.42871 7.15844 1.5506 7.37541 1.76757C7.59238 1.98454 7.71426 2.27881 7.71426 2.58564V11.8411C7.71426 12.148 7.59238 12.4422 7.37541 12.6592C7.15844 12.8762 6.86417 12.9981 6.55733 12.9981Z" fill="black"/>
<path d="M43.5768 3.74258H4.24092C3.93409 3.74258 3.63982 3.62069 3.42285 3.40372C3.20588 3.18676 3.08398 2.89249 3.08398 2.58564C3.08398 2.27881 3.20588 1.98454 3.42285 1.76757C3.63982 1.5506 3.93409 1.42871 4.24092 1.42871H43.5768C43.8836 1.42871 44.1779 1.5506 44.3949 1.76757C44.6118 1.98454 44.7337 2.27881 44.7337 2.58564C44.7337 2.89249 44.6118 3.18676 44.3949 3.40372C44.1779 3.62069 43.8836 3.74258 43.5768 3.74258Z" fill="black"/>
<path d="M41.2624 29.1952C40.9556 29.1952 40.6613 29.0733 40.4443 28.8563C40.2274 28.6393 40.1055 28.3451 40.1055 28.0382V2.58564C40.1055 2.27881 40.2274 1.98454 40.4443 1.76757C40.6613 1.5506 40.9556 1.42871 41.2624 1.42871C41.5692 1.42871 41.8635 1.5506 42.0805 1.76757C42.2974 1.98454 42.4193 2.27881 42.4193 2.58564V28.0382C42.4193 28.3451 42.2974 28.6393 42.0805 28.8563C41.8635 29.0733 41.5692 29.1952 41.2624 29.1952Z" fill="black"/>
<path d="M43.579 29.1952H29.6958C29.3889 29.1952 29.0947 29.0734 28.8777 28.8564C28.6607 28.6395 28.5388 28.3451 28.5388 28.0383C28.5388 27.7315 28.6607 27.4372 28.8777 27.2203C29.0947 27.0033 29.3889 26.8813 29.6958 26.8813H43.579C43.8858 26.8813 44.1801 27.0033 44.3971 27.2203C44.614 27.4372 44.7359 27.7315 44.7359 28.0383C44.7359 28.3451 44.614 28.6395 44.3971 28.8564C44.1801 29.0734 43.8858 29.1952 43.579 29.1952Z" fill="black"/>
<path d="M34.3214 10.6842H20.4382C20.1313 10.6842 19.8371 10.5624 19.6202 10.3454C19.4032 10.1284 19.2812 9.83411 19.2812 9.52726C19.2812 9.22042 19.4032 8.92618 19.6202 8.70922C19.8371 8.49225 20.1313 8.37036 20.4382 8.37036H34.3214C34.6283 8.37036 34.9225 8.49225 35.1395 8.70922C35.3564 8.92618 35.4784 9.22042 35.4784 9.52726C35.4784 9.83411 35.3564 10.1284 35.1395 10.3454C34.9225 10.5624 34.6283 10.6842 34.3214 10.6842Z" fill="black"/>
<path d="M34.3242 15.3119H15.8132C15.5063 15.3119 15.212 15.19 14.9951 14.973C14.7781 14.7561 14.6562 14.4618 14.6562 14.155C14.6562 13.8481 14.7781 13.5539 14.9951 13.3369C15.212 13.12 15.5063 12.998 15.8132 12.998H34.3242C34.631 12.998 34.9253 13.12 35.1422 13.3369C35.3592 13.5539 35.4811 13.8481 35.4811 14.155C35.4811 14.4618 35.3592 14.7561 35.1422 14.973C34.9253 15.19 34.631 15.3119 34.3242 15.3119Z" fill="black"/>
</g>
</g>
</g>
<defs>
<clipPath id="clip0_1_66">
<rect width="44.2358" height="40.833" fill="white" transform="translate(0.640625 0.680176)"/>
</clipPath>
<clipPath id="clip1_1_66">
<rect width="44.2358" height="40.833" fill="white" transform="translate(0.638672 0.680176)"/>
</clipPath>
<clipPath id="clip2_1_66">
<rect width="44.2358" height="40.833" fill="white" transform="translate(0.636719 0.680176)"/>
</clipPath>
</defs>
</svg>
