<svg width="48" height="48" viewBox="0 0 48 48" fill="none" xmlns="http://www.w3.org/2000/svg">
<g clip-path="url(#clip0_1_39)">
<g clip-path="url(#clip1_1_39)">
<g clip-path="url(#clip2_1_39)">
<path d="M33.9317 29.0897C33.6711 28.83 33.312 28.6812 32.9445 28.6812C32.5771 28.6812 32.2178 28.83 31.9573 29.0897C31.6978 29.3492 31.5488 29.7093 31.5488 30.0768C31.5488 30.4444 31.6978 30.8035 31.9573 31.0631C32.2179 31.3236 32.5771 31.4725 32.9445 31.4725C33.312 31.4725 33.6712 31.3236 33.9317 31.0631C34.1912 30.8035 34.3401 30.4434 34.3401 30.0768C34.3401 29.7093 34.1912 29.3492 33.9317 29.0897Z" fill="black"/>
<path d="M24.9629 29.0897C24.7023 28.83 24.3432 28.6812 23.9757 28.6812C23.6082 28.6812 23.2481 28.83 22.9885 29.0897C22.7289 29.3492 22.5801 29.7093 22.5801 30.0768C22.5801 30.4434 22.7289 30.8035 22.9885 31.0631C23.2481 31.3236 23.6082 31.4725 23.9757 31.4725C24.3432 31.4725 24.7024 31.3236 24.9629 31.0631C25.2224 30.8035 25.3714 30.4434 25.3714 30.0768C25.3714 29.7093 25.2224 29.3492 24.9629 29.0897Z" fill="black"/>
<path d="M46.3992 45.1248H43.31V23.9978H46.3992C46.9746 23.9978 47.4912 23.6445 47.6998 23.1081C47.9084 22.5717 47.7664 21.9622 47.3421 21.5733L43.31 17.8772V9.52173C43.31 8.75094 42.6852 8.12606 41.9144 8.12606C41.1436 8.12606 40.5188 8.75094 40.5188 9.52173V15.3186L29.4032 5.1293C28.8697 4.64017 28.0507 4.64017 27.517 5.1293L9.57813 21.5733C9.15389 21.9622 9.01183 22.5716 9.2205 23.108C9.42909 23.6444 9.94571 23.9977 10.5212 23.9977H13.6102V45.1248H1.55191C0.781134 45.1248 0.15625 45.7497 0.15625 46.5205C0.15625 47.2913 0.781134 47.9162 1.55191 47.9162H23.9755H32.9448H46.3992C47.1699 47.9162 47.7948 47.2913 47.7948 46.5205C47.7948 45.7497 47.1699 45.1248 46.3992 45.1248ZM31.5492 45.1246H25.3712V38.9467H31.5492V45.1246ZM40.5188 45.1246H34.3406V37.5511C34.3406 36.7803 33.7157 36.1554 32.945 36.1554H23.9755C23.2047 36.1554 22.5799 36.7803 22.5799 37.5511V45.1246H16.4018V23.9978H40.5188V45.1246ZM41.9144 21.2064H15.0061H14.1093L28.4602 8.05144L42.8111 21.2064H41.9144Z" fill="black"/>
<path d="M13.5111 6.25743H13.2424C13.1026 5.68066 12.8734 5.12164 12.5572 4.60097L12.7467 4.41153C13.2917 3.86657 13.2918 2.98284 12.7468 2.43779C12.2017 1.89264 11.3181 1.89264 10.773 2.4377L10.5851 2.62565C10.0708 2.31199 9.5128 2.08088 8.92727 1.93898V1.67325C8.92727 0.902472 8.30235 0.277588 7.53157 0.277588C6.7608 0.277588 6.13591 0.902472 6.13591 1.67325V1.93898C5.55057 2.08088 4.99258 2.31199 4.47833 2.62565L4.29029 2.4376C3.74533 1.89255 2.8616 1.89255 2.31655 2.4377C1.77149 2.98275 1.77159 3.86639 2.31664 4.41144L2.50617 4.60097C2.1901 5.12164 1.96093 5.68066 1.821 6.25734H1.55191C0.781134 6.25734 0.15625 6.88223 0.15625 7.653C0.15625 8.42378 0.781134 9.04861 1.55191 9.04861H1.821C1.96093 9.62521 2.19001 10.184 2.50608 10.7046L2.31655 10.8941C1.77149 11.439 1.7714 12.3228 2.31645 12.8679C2.58898 13.1405 2.94618 13.2767 3.30337 13.2767C3.66047 13.2767 4.01767 13.1404 4.29019 12.8679L4.47824 12.68C4.99249 12.9937 5.55048 13.2247 6.13591 13.3666V13.6326C6.13591 14.4034 6.7608 15.0283 7.53157 15.0283C8.30235 15.0283 8.92727 14.4034 8.92727 13.6326V13.3667C9.5128 13.2249 10.0709 12.9938 10.5851 12.6801L10.7729 12.868C11.0455 13.1406 11.4027 13.2768 11.7598 13.2768C12.1169 13.2768 12.4741 13.1406 12.7467 12.868C13.2917 12.323 13.2917 11.4393 12.7467 10.8943L12.5572 10.7047C12.8732 10.1842 13.1024 9.62537 13.2423 9.04878H13.5111C14.2819 9.04878 14.9068 8.42387 14.9068 7.6531C14.9068 6.88232 14.2819 6.25743 13.5111 6.25743ZM9.71688 9.83618L9.71594 9.83703L9.71501 9.83805C9.13178 10.4209 8.3565 10.7419 7.53176 10.7419C6.70655 10.7419 5.93084 10.4206 5.34746 9.83703C4.14309 8.63276 4.14319 6.67297 5.34746 5.46851C5.93037 4.88541 6.70534 4.56422 7.5298 4.56375L7.53157 4.56385L7.53343 4.56375C8.35734 4.56422 9.13195 4.88494 9.71475 5.46712L9.71586 5.46833L9.71713 5.46954C10.92 6.67381 10.9199 8.63201 9.71688 9.83618Z" fill="black"/>
</g>
</g>
</g>
<defs>
<clipPath id="clip0_1_39">
<rect width="47.6385" height="47.6385" fill="white" transform="translate(0.162109 0.277588)"/>
</clipPath>
<clipPath id="clip1_1_39">
<rect width="47.6385" height="47.6385" fill="white" transform="translate(0.160156 0.277588)"/>
</clipPath>
<clipPath id="clip2_1_39">
<rect width="47.6385" height="47.6385" fill="white" transform="translate(0.158203 0.277588)"/>
</clipPath>
</defs>
</svg>
